<svg xmlns="http://www.w3.org/2000/svg" viewBox="0 0 502.7 100" width="502.7" height="100" fill="none"><g transform="translate(-5.1764705882352935,2.941176470588239) scale(0.9411764705882353)"><path d="M34 20 L18 20 L18 80 L34 80" fill="none" stroke="#F4F4F7" stroke-width="8" stroke-linecap="round" stroke-linejoin="round"/><path d="M86 20 L102 20 L102 80 L86 80" fill="none" stroke="#F4F4F7" stroke-width="8" stroke-linecap="round" stroke-linejoin="round"/><rect x="39" y="39" width="6" height="22" rx="3" fill="#8B82F2"/><rect x="51" y="27" width="6" height="46" rx="3" fill="#8B82F2"/><rect x="63" y="33" width="6" height="34" rx="3" fill="#8B82F2"/><rect x="75" y="42" width="6" height="16" rx="3" fill="#8B82F2"/></g><g transform="translate(116.58823529411765,73.0)"><path transform="scale(0.06301369863013699,-0.06301369863013699)" d="M102 0V550H206V445H232L199 380Q199 469 238.0 514.5Q277 560 354 560Q442 560 493.5 505.5Q545 451 545 356V319H434V347Q434 406 404.5 437.5Q375 469 322 469Q269 469 239.5 437.0Q210 405 210 347V0ZM900 -10Q833 -10 782.5 16.5Q732 43 705.0 91.0Q678 139 678 203V347Q678 412 705.0 459.5Q732 507 782.5 533.5Q833 560 900 560Q968 560 1018.0 533.5Q1068 507 1095.0 459.5Q1122 412 1122 347V249H782V203Q782 142 812.5 110.0Q843 78 901 78Q948 78 977.0 94.5Q1006 111 1013 143H1120Q1108 73 1048.0 31.5Q988 -10 900 -10ZM1018 314V348Q1018 408 988.0 441.0Q958 474 900 474Q843 474 812.5 441.0Q782 408 782 347V322L1026 323ZM1287 0V730H1395V329H1492L1638 550H1760L1585 286L1763 0H1639L1492 236H1395V0ZM2100 -9Q2032 -9 1982.0 17.0Q1932 43 1905.0 91.0Q1878 139 1878 204V346Q1878 412 1905.0 459.5Q1932 507 1982.0 533.0Q2032 559 2100 559Q2168 559 2218.0 533.0Q2268 507 2295.0 459.5Q2322 412 2322 346V204Q2322 139 2295.0 91.0Q2268 43 2218.0 17.0Q2168 -9 2100 -9ZM2100 86Q2155 86 2185.0 116.5Q2215 147 2215 204V346Q2215 404 2185.0 434.0Q2155 464 2100 464Q2046 464 2015.5 434.0Q1985 404 1985 346V204Q1985 147 2015.5 116.5Q2046 86 2100 86ZM2502 0V550H2606V445H2632L2599 380Q2599 469 2638.0 514.5Q2677 560 2754 560Q2842 560 2893.5 505.5Q2945 451 2945 356V319H2834V347Q2834 406 2804.5 437.5Q2775 469 2722 469Q2669 469 2639.5 437.0Q2610 405 2610 347V0ZM3261 -10Q3178 -10 3128.0 46.0Q3078 102 3078 197V352Q3078 448 3128.0 504.0Q3178 560 3261 560Q3329 560 3369.0 522.5Q3409 485 3409 420L3386 445H3411L3408 573V730H3516V0H3409V105H3386L3409 130Q3409 65 3369.0 27.5Q3329 -10 3261 -10ZM3298 84Q3349 84 3378.5 115.5Q3408 147 3408 203V347Q3408 403 3378.5 434.5Q3349 466 3298 466Q3245 466 3215.0 435.5Q3185 405 3185 347V203Q3185 145 3215.0 114.5Q3245 84 3298 84Z" fill="#F4F4F7"/><path transform="translate(226.84931506849315,0) scale(0.06301369863013699,-0.06301369863013699)" d="M140 281V379H460V281ZM979 0Q928 0 890.0 20.5Q852 41 830.5 79.0Q809 117 809 167V632H629V730H917V167Q917 135 935.0 116.5Q953 98 984 98H1154V0ZM1281 0V98H1474V452H1306V550H1579V98H1756V0ZM1516 645Q1481 645 1460.0 663.5Q1439 682 1439 713Q1439 745 1460.0 763.5Q1481 782 1516 782Q1551 782 1572.0 763.5Q1593 745 1593 713Q1593 682 1572.0 663.5Q1551 645 1516 645ZM2139 -10Q2071 -10 2031.0 27.5Q1991 65 1991 130L2014 105H1991V0H1884V730H1992V573L1989 445H2014L1991 420Q1991 485 2031.5 522.5Q2072 560 2139 560Q2222 560 2272.0 504.0Q2322 448 2322 352V197Q2322 102 2272.0 46.0Q2222 -10 2139 -10ZM2102 84Q2155 84 2185.0 114.5Q2215 145 2215 203V347Q2215 405 2185.0 435.5Q2155 466 2102 466Q2051 466 2021.5 434.5Q1992 403 1992 347V203Q1992 147 2021.5 115.5Q2051 84 2102 84Z" fill="#8B82F2"/></g></svg>
